<?xml version="1.0" encoding="utf-8"?>
<!-- Generator: Adobe Illustrator 19.0.0, SVG Export Plug-In . SVG Version: 6.00 Build 0)  -->
<svg version="1.1" id="Layer_1" xmlns="http://www.w3.org/2000/svg" xmlns:xlink="http://www.w3.org/1999/xlink" x="0px" y="0px"
	 viewBox="-85 -4 620 620" style="enable-background:new -85 -4 620 620;" xml:space="preserve">
<style type="text/css">
	.st0{fill:#FFFFFF;}
</style>
<g id="surface1">
	<path class="st0" d="M115,76h220v20H115V76z"/>
	<path class="st0" d="M145,46h160v20H145V46z"/>
	<path class="st0" d="M115,496h220v20H115V496z"/>
	<path class="st0" d="M145,526h160v20H145V526z"/>
	<path class="st0" d="M534.8,165.2c-0.1-0.7-0.2-1.3-0.4-2c-0.2-0.6-0.4-1.2-0.7-1.7c-0.3-0.5-0.6-1.1-1-1.5c-0.4-0.5-0.9-1-1.4-1.5
		c-0.2-0.2-0.3-0.5-0.6-0.6l-95.8-67V6c0-5.5-4.5-10-10-10H25C19.5-4,15,0.5,15,6v84.8l-95.7,67c-0.2,0.2-0.4,0.4-0.6,0.6
		c-0.5,0.4-1,0.9-1.4,1.5c-0.4,0.5-0.7,1-1,1.5c-0.3,0.6-0.5,1.1-0.7,1.7c-0.2,0.7-0.3,1.3-0.4,2c-0.1,0.3-0.2,0.6-0.2,0.8v260
		c0,5.5,4.5,10,10,10h90v150c0,5.5,4.5,10,10,10h400c5.5,0,10-4.5,10-10V436h90c5.5,0,10-4.5,10-10V166
		C535,165.7,534.9,165.4,534.8,165.2z M493.3,156H435v-40.8L493.3,156z M415,16v140h-30v-40c0-5.5-4.5-10-10-10H75
		c-5.5,0-10,4.5-10,10v40H35V16H415z M85,156v-30h280v30H85z M15,156h-58.3L15,115.2V156z M415,576H35V436h30v40c0,5.5,4.5,10,10,10
		h300c5.5,0,10-4.5,10-10v-40h30V576z M365,436v30H85v-30H365z M515,416H-65V176h580V416z"/>
	<path class="st0" d="M155,226c5.5,0,10-4.5,10-10s-4.5-10-10-10H75c-5.5,0-10,4.5-10,10v160c0,5.5,4.5,10,10,10h80
		c5.5,0,10-4.5,10-10s-4.5-10-10-10H85v-60h70c5.5,0,10-4.5,10-10s-4.5-10-10-10H85v-60H155z"/>
	<path class="st0" d="M269.5,207.1c-4.9-2.5-11-0.5-13.4,4.5L225,273.6l-31-62.1c-2.5-4.9-8.5-7-13.4-4.5c-4.9,2.5-6.9,8.5-4.5,13.4
		l37.7,75.5l-37.8,75.5c-2.5,4.9-0.5,10.9,4.5,13.4c4.9,2.5,10.9,0.5,13.4-4.5l31.1-62.1l31,62.1c2.5,4.9,8.5,7,13.4,4.5
		c4.9-2.5,6.9-8.5,4.5-13.4L236.2,296l37.8-75.5c1.2-2.4,1.4-5.1,0.5-7.6C273.7,210.3,271.9,208.2,269.5,207.1z"/>
	<path class="st0" d="M355,206h-60c-5.5,0-10,4.5-10,10v160c0,5.5,4.5,10,10,10s10-4.5,10-10v-70h50c16.6,0,30-13.4,30-30v-40
		C385,219.4,371.6,206,355,206z M365,276c0,5.5-4.5,10-10,10h-50v-60h50c5.5,0,10,4.5,10,10V276z"/>
</g>
</svg>
